<?xml version="1.0" standalone="no"?>
<!DOCTYPE svg PUBLIC "-//W3C//DTD SVG 20010904//EN"
 "http://www.w3.org/TR/2001/REC-SVG-20010904/DTD/svg10.dtd">
<svg version="1.0" xmlns="http://www.w3.org/2000/svg"
 width="1024.000000pt" height="1024.000000pt" viewBox="0 0 1024.000000 1024.000000"
 preserveAspectRatio="xMidYMid meet">
<metadata>
Created by potrace 1.14, written by Peter Selinger 2001-2017
</metadata>
<g transform="translate(0.000000,1024.000000) scale(0.100000,-0.100000)"
fill="#000000" stroke="none">
<path d="M5162 8818 c-160 -18 -281 -77 -403 -198 -98 -97 -157 -193 -185
-302 l-18 -68 -705 -1 c-388 0 -719 -2 -736 -5 -80 -11 -156 -27 -215 -45
-266 -83 -531 -344 -618 -609 -54 -164 -53 -146 -54 -1102 l0 -888 -62 -1
c-33 0 -68 -2 -76 -4 -83 -18 -117 -28 -164 -49 -195 -86 -356 -280 -402 -483
-16 -73 -17 -196 -18 -1863 l0 -1785 1785 1 c1403 0 1797 3 1844 13 175 37
326 138 436 291 68 95 119 250 119 364 l0 56 773 1 c424 0 779 2 787 3 8 2 40
6 70 10 149 16 310 85 450 192 65 49 174 163 218 226 83 120 153 310 166 448
3 30 5 409 6 842 l0 786 53 12 c180 43 360 190 446 363 79 161 74 10 75 1988
0 971 -1 1776 -4 1790 l-5 24 -1750 0 c-962 0 -1778 -3 -1813 -7z"/>
</g>
</svg>
